<svg xmlns="http://www.w3.org/2000/svg" viewBox="0 0 800 600" width="800" height="600" role="img" aria-label="Sandwich">
<defs><linearGradient id="b" x1="0" y1="0" x2="0" y2="1"><stop offset="0" stop-color="#f6f1e6"/><stop offset="1" stop-color="#e3d8c2"/></linearGradient></defs>
<rect width="800" height="600" fill="url(#b)"/>
<ellipse cx="400" cy="470" rx="200" ry="40" fill="#000" opacity=".08"/>
<g transform="translate(400,340)">
<path d="M-190 60 L-30 -110 L150 60 Z" fill="#d9a75f"/>
<path d="M-176 52 L-32 -96 L134 52 Z" fill="#f0dcb4"/>
<path d="M-160 30 q80 26 150 0 q-10 26 -70 30 q-60 -4 -80 -30z" fill="#7fa050"/>
<path d="M-150 8 q80 22 140 0 q-16 20 -70 22 q-54 -2 -70 -22z" fill="#f6e7c2"/>
<path d="M-140 -12 q76 20 130 0 q-14 18 -64 20 q-52 -2 -66 -20z" fill="#c96b52"/>
<g fill="#fff" opacity=".8"><circle cx="-96" cy="-56" r="5"/><circle cx="-60" cy="-78" r="5"/><circle cx="-20" cy="-66" r="5"/><circle cx="16" cy="-40" r="5"/></g>
</g></svg>